<svg viewBox="0 0 40 40" fill="none" xmlns="http://www.w3.org/2000/svg">
  <!-- Flag pole -->
  <path d="M12 8C10 14 7 32 5 38" stroke="#1a2744" stroke-width="4" stroke-linecap="round"/>
  <!-- Flag top section -->
  <path d="M14 5C14 5 20 3 26 5C32 7 36 5 38 6C38 6 36 12 38 16C32 14 26 16 20 14C14 12 14 14 14 14V5Z" fill="#1a2744"/>
  <!-- Flag bottom section -->
  <path d="M14 18C14 18 20 16 26 18C32 20 36 19 38 20C40 22 40 26 37 28C33 30 28 29 22 27C16 25 14 26 14 26V18Z" fill="#1a2744"/>
</svg>
