<svg viewBox="0 0 32 32" fill="none" xmlns="http://www.w3.org/2000/svg">
  <!-- Flag pole -->
  <path d="M9 6C7.5 10 5.5 24 4 29" stroke="#1a2744" stroke-width="2.5" stroke-linecap="round"/>
  <!-- Flag top section -->
  <path d="M10 4C10 4 14 3 18 4C22 5 25 4 28 5C28 5 26 8 28 11C25 10 22 11 18 10C14 9 10 10 10 10V4Z" fill="#1a2744"/>
  <!-- Flag bottom section -->
  <path d="M10 12C10 12 14 11 18 12C22 13 25 12 28 13C29 14 30 16 28 18C26 19 23 19 19 18C15 17 11 18 10 17V12Z" fill="#1a2744"/>
</svg>
